<svg xmlns="http://www.w3.org/2000/svg" xmlns:xlink="http://www.w3.org/1999/xlink" width="2000" zoomAndPan="magnify" viewBox="0 0 1500 1499.999933" height="2000" preserveAspectRatio="xMidYMid meet" version="1.0"><defs><g/><clipPath id="e463e42cae"><rect x="0" width="1470" y="0" height="634"/></clipPath></defs><rect x="-150" width="1800" fill="#ffffff" y="-149.999993" height="1799.99992" fill-opacity="1"/><rect x="-150" width="1800" fill="#ffffff" y="-149.999993" height="1799.99992" fill-opacity="1"/><g transform="matrix(1, 0, 0, 1, 26, 432)"><g clip-path="url(#e463e42cae)"><g fill="#000000" fill-opacity="1"><g transform="translate(7.754697, 445.284527)"><g><path d="M 67.609375 -367.390625 C 77.910156 -374.085938 85.957031 -377.4375 91.75 -377.4375 C 97.550781 -377.4375 103.023438 -376.28125 108.171875 -373.96875 L 58.328125 -154.921875 C 57.046875 -142.554688 52.671875 -106.882812 45.203125 -47.90625 C 37.734375 11.070312 32.96875 50.992188 30.90625 71.859375 C 12.101562 73.660156 -0.128906 69.539062 -5.796875 59.5 C 7.335938 5.925781 22.921875 -77.90625 40.953125 -192 Z M 67.609375 -367.390625 "/></g></g></g><g fill="#000000" fill-opacity="1"><g transform="translate(90.426443, 445.284527)"><g><path d="M 67.609375 -367.390625 C 77.910156 -374.085938 85.957031 -377.4375 91.75 -377.4375 C 97.550781 -377.4375 103.023438 -376.28125 108.171875 -373.96875 L 58.328125 -154.921875 C 57.046875 -142.554688 52.671875 -106.882812 45.203125 -47.90625 C 37.734375 11.070312 32.96875 50.992188 30.90625 71.859375 C 12.101562 73.660156 -0.128906 69.539062 -5.796875 59.5 C 7.335938 5.925781 22.921875 -77.90625 40.953125 -192 Z M 67.609375 -367.390625 "/></g></g></g><g fill="#000000" fill-opacity="1"><g transform="translate(173.098188, 445.284527)"><g/></g></g><g fill="#000000" fill-opacity="1"><g transform="translate(339.986985, 445.284527)"><g><path d="M 101.21875 -100.828125 C 98.382812 -100.828125 90.144531 -105.078125 76.5 -113.578125 C 62.070312 -107.648438 48.675781 -104.816406 36.3125 -105.078125 L 34.390625 -101.984375 C 62.460938 -67.734375 87.570312 -38.242188 109.71875 -13.515625 C 108.425781 -9.140625 106.300781 -5.726562 103.34375 -3.28125 C 100.382812 -0.832031 97.488281 0.257812 94.65625 0 C 87.695312 -7.207031 72.882812 -23.5625 50.21875 -49.0625 C 27.550781 -74.5625 11.457031 -91.945312 1.9375 -101.21875 C 7.34375 -118.988281 16.351562 -128.390625 28.96875 -129.421875 C 33.863281 -127.097656 40.304688 -126.582031 48.296875 -127.875 C 65.035156 -130.195312 81.453125 -137.664062 97.546875 -150.28125 C 113.640625 -162.90625 121.6875 -176.425781 121.6875 -190.84375 C 121.6875 -197.03125 119.5 -203.210938 115.125 -209.390625 C 110.75 -215.566406 105.984375 -218.65625 100.828125 -218.65625 C 85.117188 -218.65625 70.953125 -211.445312 58.328125 -197.03125 C 49.578125 -198.832031 44.941406 -203.082031 44.421875 -209.78125 C 46.222656 -212.863281 49.703125 -216.722656 54.859375 -221.359375 L 8.109375 -221.359375 L 3.484375 -225.609375 C 5.285156 -231.796875 8.503906 -236.304688 13.140625 -239.140625 L 216.734375 -239.140625 L 219.4375 -250.734375 C 236.175781 -250.734375 247.378906 -246.867188 253.046875 -239.140625 L 291.296875 -239.140625 L 295.921875 -234.890625 C 294.117188 -228.703125 290.898438 -224.191406 286.265625 -221.359375 L 244.9375 -221.359375 L 221.359375 -170.375 L 193.9375 0 C 179.257812 1.800781 168.828125 -1.160156 162.640625 -8.890625 L 189.296875 -121.6875 L 200.890625 -137.140625 L 197.40625 -142.171875 C 183.5 -131.347656 166.375 -121.75 146.03125 -113.375 C 125.6875 -105.007812 110.75 -100.828125 101.21875 -100.828125 Z M 139.078125 -221.359375 C 146.546875 -212.347656 150.28125 -202.5 150.28125 -191.8125 C 150.28125 -181.125 145.0625 -169.40625 134.625 -156.65625 C 124.195312 -143.90625 111.257812 -132.894531 95.8125 -123.625 C 99.414062 -121.5625 101.988281 -120.53125 103.53125 -120.53125 C 112.800781 -120.53125 128.507812 -125.613281 150.65625 -135.78125 C 172.8125 -145.957031 189.425781 -157.359375 200.5 -169.984375 L 212.484375 -221.359375 Z M 139.078125 -221.359375 "/></g></g></g><g fill="#000000" fill-opacity="1"><g transform="translate(576.799117, 445.284527)"><g><path d="M -62.96875 7.734375 C -55.5 7.734375 -46.546875 11.207031 -36.109375 18.15625 C -25.679688 25.113281 -20.46875 31.296875 -20.46875 36.703125 C -20.46875 49.316406 -29.929688 61.097656 -48.859375 72.046875 C -67.796875 82.992188 -86.019531 88.984375 -103.53125 90.015625 C -119.757812 88.984375 -135.472656 82.992188 -150.671875 72.046875 C -165.867188 61.097656 -177.328125 48.546875 -185.046875 34.390625 C -177.578125 23.304688 -168.4375 18.28125 -157.625 19.3125 C -152.21875 33.476562 -145.648438 44.679688 -137.921875 52.921875 C -130.191406 61.171875 -118.988281 68.515625 -104.3125 74.953125 C -89.625 72.367188 -76.875 67.597656 -66.0625 60.640625 C -55.25 53.691406 -49.84375 45.453125 -49.84375 35.921875 C -52.675781 32.578125 -55.632812 30.773438 -58.71875 30.515625 C -66.957031 31.035156 -76.617188 34.898438 -87.703125 42.109375 C -93.878906 40.046875 -98.578125 37.019531 -101.796875 33.03125 C -105.015625 29.039062 -105.851562 24.597656 -104.3125 19.703125 C -91.945312 11.722656 -78.164062 7.734375 -62.96875 7.734375 Z M -62.96875 7.734375 "/></g></g></g><g fill="#000000" fill-opacity="1"><g transform="translate(576.799117, 445.284527)"><g><path d="M 278.546875 -239.140625 L 283.171875 -234.890625 C 281.367188 -228.703125 278.148438 -224.191406 273.515625 -221.359375 L 232.1875 -221.359375 L 208.625 -170.375 L 181.1875 0 C 166.507812 1.800781 156.078125 -1.160156 149.890625 -8.890625 L 199.734375 -221.359375 L 166.125 -221.359375 L 161.484375 -225.609375 C 163.285156 -231.796875 166.503906 -236.304688 171.140625 -239.140625 L 203.984375 -239.140625 L 206.6875 -250.734375 C 223.425781 -250.734375 234.628906 -246.867188 240.296875 -239.140625 Z M 44.046875 -213.25 C 44.046875 -222.269531 50.929688 -233.347656 64.703125 -246.484375 C 78.484375 -259.617188 92.003906 -266.1875 105.265625 -266.1875 C 118.535156 -266.1875 129.546875 -259.742188 138.296875 -246.859375 C 147.054688 -233.984375 151.4375 -219.304688 151.4375 -202.828125 C 151.4375 -178.097656 139.972656 -155.945312 117.046875 -136.375 C 94.128906 -116.800781 67.601562 -106.367188 37.46875 -105.078125 L 35.546875 -101.984375 C 63.617188 -67.734375 88.726562 -38.242188 110.875 -13.515625 C 109.582031 -9.140625 107.457031 -5.726562 104.5 -3.28125 C 101.539062 -0.832031 98.644531 0.257812 95.8125 0 C 88.851562 -7.207031 74.039062 -23.5625 51.375 -49.0625 C 28.71875 -74.5625 12.625 -91.945312 3.09375 -101.21875 C 8.5 -118.988281 17.515625 -128.390625 30.140625 -129.421875 C 47.648438 -124.523438 66.707031 -128.773438 87.3125 -142.171875 C 100.1875 -150.410156 110.226562 -160.453125 117.4375 -172.296875 L 69.921875 -179.25 C 64.253906 -182.34375 58.523438 -187.554688 52.734375 -194.890625 C 46.941406 -202.234375 44.046875 -208.351562 44.046875 -213.25 Z M 123.625 -186.59375 C 125.164062 -191.488281 125.9375 -198.3125 125.9375 -207.0625 C 125.9375 -215.820312 123.941406 -224.453125 119.953125 -232.953125 C 115.960938 -241.453125 110.550781 -245.703125 103.71875 -245.703125 C 96.894531 -245.703125 89.101562 -241.835938 80.34375 -234.109375 C 71.59375 -226.390625 67.21875 -219.820312 67.21875 -214.40625 C 67.21875 -211.570312 68.695312 -208.285156 71.65625 -204.546875 C 74.625 -200.816406 77.523438 -198.050781 80.359375 -196.25 Z M 123.625 -186.59375 "/></g></g></g><g fill="#000000" fill-opacity="1"><g transform="translate(800.862774, 445.284527)"><g><path d="M 129.03125 -239.140625 L 133.671875 -234.890625 C 131.867188 -228.703125 128.648438 -224.191406 124.015625 -221.359375 L 82.671875 -221.359375 L 59.109375 -170.375 L 31.671875 0 C 16.992188 1.800781 6.566406 -1.160156 0.390625 -8.890625 L 50.21875 -221.359375 L 8.109375 -221.359375 L 3.484375 -225.609375 C 5.285156 -231.796875 8.503906 -236.304688 13.140625 -239.140625 L 54.46875 -239.140625 L 57.171875 -250.734375 C 73.910156 -250.734375 85.113281 -246.867188 90.78125 -239.140625 Z M 129.03125 -239.140625 "/></g></g></g><g fill="#000000" fill-opacity="1"><g transform="translate(875.421895, 445.284527)"><g><path d="M 21.046875 -276.984375 C 17.828125 -273.640625 13.898438 -271.96875 9.265625 -271.96875 C 4.628906 -271.96875 0.640625 -273.640625 -2.703125 -276.984375 C -6.054688 -280.335938 -7.734375 -284.332031 -7.734375 -288.96875 C -7.734375 -293.601562 -6.117188 -297.53125 -2.890625 -300.75 C 0.328125 -303.96875 4.316406 -305.578125 9.078125 -305.578125 C 13.835938 -305.578125 17.828125 -303.96875 21.046875 -300.75 C 24.273438 -297.53125 25.890625 -293.601562 25.890625 -288.96875 C 25.890625 -284.332031 24.273438 -280.335938 21.046875 -276.984375 Z M 21.046875 -276.984375 "/></g></g></g><g fill="#000000" fill-opacity="1"><g transform="translate(875.421895, 445.284527)"><g><path d="M 229.484375 -149.125 C 229.484375 -112.8125 207.71875 -76.109375 164.1875 -39.015625 C 155.175781 -42.109375 151.1875 -45.972656 152.21875 -50.609375 C 184.664062 -80.484375 200.890625 -112.421875 200.890625 -146.421875 C 200.890625 -162.128906 194.453125 -170.628906 181.578125 -171.921875 C 177.972656 -167.535156 169.988281 -158.320312 157.625 -144.28125 C 145.257812 -130.25 136.757812 -120.398438 132.125 -114.734375 L 113.578125 0 C 98.898438 1.800781 88.46875 -1.160156 82.28125 -8.890625 L 94.65625 -61.8125 L 108.9375 -90.78125 L 104.6875 -93.484375 C 85.632812 -70.828125 70.828125 -52.800781 60.265625 -39.40625 C 44.816406 -40.4375 32.773438 -45.007812 24.140625 -53.125 C 15.515625 -61.238281 11.203125 -73.082031 11.203125 -88.65625 C 11.203125 -104.238281 14.550781 -120.269531 21.25 -136.75 C 27.945312 -153.238281 37.023438 -167.019531 48.484375 -178.09375 C 59.941406 -189.164062 71.851562 -194.703125 84.21875 -194.703125 C 89.113281 -194.703125 93.8125 -192.832031 98.3125 -189.09375 C 102.820312 -185.363281 106.039062 -181.953125 107.96875 -178.859375 C 109.90625 -175.773438 113.191406 -170.5 117.828125 -163.03125 L 118.609375 -163.421875 L 132.125 -221.359375 L 8.109375 -221.359375 L 3.484375 -225.609375 C 5.285156 -231.796875 8.503906 -236.304688 13.140625 -239.140625 L 136.375 -239.140625 L 139.078125 -250.734375 C 155.816406 -250.734375 167.019531 -246.867188 172.6875 -239.140625 L 287.046875 -239.140625 L 291.671875 -234.890625 C 289.867188 -228.703125 286.648438 -224.191406 282.015625 -221.359375 L 165.34375 -221.359375 L 133.28125 -143.71875 L 135.984375 -141.78125 C 141.390625 -148.21875 148.921875 -157.296875 158.578125 -169.015625 C 168.242188 -180.734375 174.234375 -187.878906 176.546875 -190.453125 C 192.515625 -192.773438 205.328125 -190.203125 214.984375 -182.734375 C 224.648438 -175.265625 229.484375 -164.0625 229.484375 -149.125 Z M 85.765625 -175 C 75.722656 -175 65.550781 -165.726562 55.25 -147.1875 C 44.945312 -128.644531 39.796875 -108.941406 39.796875 -88.078125 C 39.796875 -72.628906 44.300781 -62.710938 53.3125 -58.328125 C 76.238281 -82.285156 94.523438 -102.890625 108.171875 -120.140625 L 113.1875 -141.015625 C 104.4375 -163.671875 95.296875 -175 85.765625 -175 Z M 85.765625 -175 "/></g></g></g><g fill="#000000" fill-opacity="1"><g transform="translate(1107.984409, 445.284527)"><g/></g></g><g fill="#000000" fill-opacity="1"><g transform="translate(1274.873205, 445.284527)"><g><path d="M 67.609375 -367.390625 C 77.910156 -374.085938 85.957031 -377.4375 91.75 -377.4375 C 97.550781 -377.4375 103.023438 -376.28125 108.171875 -373.96875 L 58.328125 -154.921875 C 57.046875 -142.554688 52.671875 -106.882812 45.203125 -47.90625 C 37.734375 11.070312 32.96875 50.992188 30.90625 71.859375 C 12.101562 73.660156 -0.128906 69.539062 -5.796875 59.5 C 7.335938 5.925781 22.921875 -77.90625 40.953125 -192 Z M 67.609375 -367.390625 "/></g></g></g><g fill="#000000" fill-opacity="1"><g transform="translate(1357.545015, 445.284527)"><g><path d="M 67.609375 -367.390625 C 77.910156 -374.085938 85.957031 -377.4375 91.75 -377.4375 C 97.550781 -377.4375 103.023438 -376.28125 108.171875 -373.96875 L 58.328125 -154.921875 C 57.046875 -142.554688 52.671875 -106.882812 45.203125 -47.90625 C 37.734375 11.070312 32.96875 50.992188 30.90625 71.859375 C 12.101562 73.660156 -0.128906 69.539062 -5.796875 59.5 C 7.335938 5.925781 22.921875 -77.90625 40.953125 -192 Z M 67.609375 -367.390625 "/></g></g></g></g></g></svg>